<svg width="604" height="558" viewBox="0 0 604 558" fill="none" xmlns="http://www.w3.org/2000/svg">
<path d="M110.626 82.8941C82.5254 48.4326 189.578 -23.3431 220.682 11.1184C235.647 31.6849 271.535 141.741 297.243 109.211L369.629 19.7225C388.769 0.581926 420.697 -16.1578 426.439 27.8652C432.181 71.8883 333.131 338.893 514.963 149.883C539.498 124.379 620.234 187.685 601.093 252.762C577.168 334.108 325.953 224.052 534.103 413.061C558.639 435.341 561.031 491.049 481.467 458.519L407.299 427.416C392.374 423.477 389.981 427.416 438.402 506.369C467.723 579.573 320.598 564.635 313.991 520.724L282.888 427.416C280.495 419.441 271.882 408.276 256.57 427.416C241.258 446.556 194.364 475.267 172.832 487.229C135.162 508.157 46.0268 395.348 98.6634 367.603L213.503 310.182C220.681 304.6 225.945 292.478 189.578 288.65L46.0268 283.865C1.17879 283.865 -29.9232 200.126 46.0268 200.126L206.324 214.482C227.856 216.077 261.83 212.568 225.464 185.771C189.097 158.975 133.752 106.021 110.626 82.8941Z" fill="white"/>
</svg>
