<svg width="886" height="894" viewBox="0 0 886 894" fill="none" xmlns="http://www.w3.org/2000/svg">
<g clip-path="url(#clip0_18_8)">
<g filter="url(#filter0_f_18_8)">
<path d="M1016.77 837C137.974 1259.8 213.274 441.167 360.774 -21H1016.77C1382.94 88.8333 1895.57 414.2 1016.77 837Z" fill="#445CA6" stroke="#445CA6"/>
<g clip-path="url(#clip1_18_8)">
<path d="M584.836 -160H-9.16354C-205.997 200.167 -481.564 915.2 -9.16354 894C463.236 872.8 583.67 182.5 584.836 -160Z" fill="#F24A47" stroke="#F24A47"/>
</g>
<path d="M689.993 1134.6C602.993 695.596 -177.007 319.096 38.4929 1134.6H689.993Z" fill="#F7BC13" stroke="#F7BC13"/>
</g>
<path d="M251.626 248.894C223.525 214.433 330.578 142.657 361.682 177.118C376.647 197.685 412.535 307.741 438.243 275.211L510.629 185.723C529.769 166.582 561.697 149.842 567.439 193.865C573.181 237.888 474.131 504.893 655.963 315.883C680.498 290.379 761.234 353.685 742.093 418.762C718.168 500.108 466.953 390.052 675.103 579.061C699.639 601.341 702.031 657.049 622.467 624.519L548.299 593.416C533.374 589.477 530.981 593.416 579.402 672.369C608.723 745.573 461.598 730.635 454.991 686.724L423.888 593.416C421.495 585.441 412.882 574.276 397.57 593.416C382.258 612.556 335.364 641.267 313.832 653.229C276.162 674.157 187.027 561.348 239.663 533.603L354.503 476.182C361.681 470.6 366.945 458.478 330.578 454.65L187.027 449.865C142.179 449.865 111.077 366.126 187.027 366.126L347.324 380.482C368.856 382.077 402.83 378.568 366.464 351.771C330.097 324.975 274.752 272.021 251.626 248.894Z" fill="white"/>
</g>
<defs>
<filter id="filter0_f_18_8" x="-314.4" y="-204.4" width="1861.31" height="1383.9" filterUnits="userSpaceOnUse" color-interpolation-filters="sRGB">
<feFlood flood-opacity="0" result="BackgroundImageFix"/>
<feBlend mode="normal" in="SourceGraphic" in2="BackgroundImageFix" result="shape"/>
<feGaussianBlur stdDeviation="22.2" result="effect1_foregroundBlur_18_8"/>
</filter>
<clipPath id="clip0_18_8">
<rect width="886" height="894" rx="170" fill="white"/>
</clipPath>
<clipPath id="clip1_18_8">
<rect width="854.836" height="1054.46" fill="white" transform="translate(-270 -160)"/>
</clipPath>
</defs>
</svg>
