<svg width="886" height="894" viewBox="0 0 886 894" fill="none" xmlns="http://www.w3.org/2000/svg">
<path d="M403.434 737.8C285.034 737.8 223.434 680.2 223.434 601C223.434 553.8 253.034 519.4 301.034 519.4C341.834 519.4 368.234 550.6 368.234 585.8C368.234 603.4 361.034 615.4 352.234 625C347.434 630.6 343.434 634.6 343.434 640.2C343.434 652.2 357.034 673.8 391.434 673.8C434.634 673.8 461.034 639.4 461.034 556.2V293C461.034 253.8 457.834 219.4 445.034 218.6C409.834 215.4 392.234 207.4 392.234 187.4C392.234 159.4 440.234 149.8 522.634 149.8C605.034 149.8 653.034 159.4 653.034 187.4C653.034 207.4 635.434 215.4 606.634 218.6C593.834 220.2 590.634 253.8 590.634 293V557.8C590.634 693 506.634 737.8 403.434 737.8Z" fill="white"/>
</svg>
